<?xml version="1.0" standalone="no"?><!DOCTYPE svg PUBLIC "-//W3C//DTD SVG 1.1//EN" "http://www.w3.org/Graphics/SVG/1.1/DTD/svg11.dtd"><svg t="1718941797438" class="icon" viewBox="0 0 1024 1024" version="1.1" xmlns="http://www.w3.org/2000/svg" p-id="5783" xmlns:xlink="http://www.w3.org/1999/xlink" width="200" height="200"><path d="M534.528 214.72L237.312 509.44l297.408 300.032a32 32 0 0 1 3.52 40.832l-3.712 4.416a32 32 0 0 1-45.248-0.192l-320-322.688a32 32 0 0 1 0.192-45.248l320-317.312a32 32 0 0 1 45.056 45.44z m320 0L557.312 509.44l297.408 300.032a32 32 0 0 1 3.52 40.832l-3.712 4.416a32 32 0 0 1-45.248-0.192l-320-322.688a32 32 0 0 1 0.192-45.248l320-317.312a32 32 0 0 1 45.056 45.44z" p-id="5784"></path></svg>