<?xml version="1.0" standalone="no"?><!DOCTYPE svg PUBLIC "-//W3C//DTD SVG 1.1//EN" "http://www.w3.org/Graphics/SVG/1.1/DTD/svg11.dtd"><svg t="1718947217476" class="icon" viewBox="0 0 1024 1024" version="1.1" xmlns="http://www.w3.org/2000/svg" p-id="10300" xmlns:xlink="http://www.w3.org/1999/xlink" width="200" height="200"><path d="M213.333333 128h597.333334V341.333333h85.333333V128a85.333333 85.333333 0 0 0-85.333333-85.333333H213.333333a85.333333 85.333333 0 0 0-85.333333 85.333333v768a85.333333 85.333333 0 0 0 85.333333 85.333333H341.333333v-85.333333H213.333333V128z" fill="#1f2329" p-id="10301"></path><path d="M554.666667 661.333333a42.666667 42.666667 0 0 1 42.666666-42.666666h170.666667a42.666667 42.666667 0 0 1 0 85.333333h-170.666667a42.666667 42.666667 0 0 1-42.666666-42.666667z" fill="#1f2329" p-id="10302"></path><path d="M810.666667 896h85.333333a85.333333 85.333333 0 0 0 85.333333-85.333333V512a85.333333 85.333333 0 0 0-85.333333-85.333333h-426.666667A85.333333 85.333333 0 0 0 384 512v298.666667a85.333333 85.333333 0 0 0 85.333333 85.333333h85.333334l114.346666 95.288889c7.907556 6.599111 19.399111 6.599111 27.306667 0l114.346667-95.288889z m-30.890667-85.333333L682.666667 891.562667l-97.109334-80.896H469.333333V512h426.666667v298.666667h-116.224z" fill="#1f2329" p-id="10303"></path></svg>