<?xml version="1.0" standalone="no"?><!DOCTYPE svg PUBLIC "-//W3C//DTD SVG 1.1//EN" "http://www.w3.org/Graphics/SVG/1.1/DTD/svg11.dtd"><svg t="1718947180253" class="icon" viewBox="0 0 1024 1024" version="1.1" xmlns="http://www.w3.org/2000/svg" p-id="8270" xmlns:xlink="http://www.w3.org/1999/xlink" width="200" height="200"><path d="M511.9488 896a384 384 0 1 0 0-768 384 384 0 0 0 0 768z m0 85.3504a469.3504 469.3504 0 1 1 0-938.7008 469.3504 469.3504 0 0 1 0 938.7008z m-42.7008-256a42.6496 42.6496 0 1 1 85.3504 0 42.6496 42.6496 0 0 1-85.3504 0zM343.3984 396.032c0.512-4.7616 1.0752-8.704 1.6384-11.9296 8.3456-46.2848 29.3888-80.384 63.232-102.1952C434.688 264.704 467.2512 256 505.856 256c50.688 0 92.8768 12.288 126.464 36.864 33.4848 24.576 50.2784 60.928 50.2784 109.1584 0 29.5936-7.2704 54.4768-21.8624 74.752-8.5504 12.288-24.9344 27.9552-49.152 47.0528l-23.9104 18.7392c-13.0048 10.24-21.6576 22.2208-25.9072 35.84a115.9168 115.9168 0 0 0-3.072 20.7872 21.3504 21.3504 0 0 1-21.248 19.456h-47.7696a21.3504 21.3504 0 0 1-21.248-23.296c2.7648-29.696 5.6832-48.4864 8.8576-56.32 5.7856-14.6944 20.8384-31.5904 45.056-50.688l24.576-19.456c8.0896-6.144 49.7152-35.4304 49.7152-61.44 0-25.9072-4.5056-35.4816-17.5616-49.7152-13.0048-14.2336-42.3424-18.8416-68.8128-18.8416-26.0608 0-48.2816 6.912-59.1872 24.4224a123.3408 123.3408 0 0 0-12.1344 25.6 89.1392 89.1392 0 0 0-3.072 13.1072 21.3504 21.3504 0 0 1-21.0432 17.7664H364.544a21.3504 21.3504 0 0 1-21.1968-23.7568z" fill="#1f2329" p-id="8271"></path></svg>